<svg width="400" height="155" viewBox="0 0 400 155" fill="none" xmlns="http://www.w3.org/2000/svg">
<g clip-path="url(#clip0_88_69)">
<path style="mix-blend-mode:screen" d="M206.21 90.78C292.499 90.78 362.45 82.2376 362.45 71.7C362.45 61.1624 292.499 52.62 206.21 52.62C119.921 52.62 49.97 61.1624 49.97 71.7C49.97 82.2376 119.921 90.78 206.21 90.78Z" fill="url(#paint0_radial_88_69)"/>
<path style="mix-blend-mode:screen" d="M199.63 76.58C309.883 76.58 399.26 74.6324 399.26 72.23C399.26 69.8276 309.883 67.88 199.63 67.88C89.3774 67.88 0 69.8276 0 72.23C0 74.6324 89.3774 76.58 199.63 76.58Z" fill="url(#paint1_radial_88_69)"/>
<path style="mix-blend-mode:screen" d="M207.618 81.3262C257.526 62.2383 296.094 41.8217 293.762 35.7244C291.43 29.6271 249.081 40.1581 199.174 59.246C149.266 78.3339 110.698 98.7506 113.03 104.848C115.362 110.945 157.711 100.414 207.618 81.3262Z" fill="url(#paint2_radial_88_69)"/>
<path style="mix-blend-mode:screen" d="M200.669 74.5607C264.438 50.1716 315.701 29.2712 315.168 27.8784C314.635 26.4856 262.509 45.1278 198.74 69.517C134.972 93.9061 83.7087 114.806 84.2414 116.199C84.7741 117.592 136.901 98.9498 200.669 74.5607Z" fill="url(#paint3_radial_88_69)"/>
<path style="mix-blend-mode:color-dodge" d="M213.76 83.29C235.31 83.29 252.78 78.4367 252.78 72.45C252.78 66.4632 235.31 61.61 213.76 61.61C192.21 61.61 174.74 66.4632 174.74 72.45C174.74 78.4367 192.21 83.29 213.76 83.29Z" fill="url(#paint4_radial_88_69)"/>
<path style="mix-blend-mode:screen" d="M206.75 145.58C262.553 145.58 307.79 112.991 307.79 72.79C307.79 32.5892 262.553 0 206.75 0C150.947 0 105.71 32.5892 105.71 72.79C105.71 112.991 150.947 145.58 206.75 145.58Z" fill="url(#paint5_radial_88_69)"/>
<path style="mix-blend-mode:screen" d="M196.076 132.492C252.381 109.112 288.93 68.2522 277.709 41.2292C266.488 14.2062 211.747 11.2531 155.441 34.6332C99.1357 58.0133 62.5874 98.873 73.8084 125.896C85.0293 152.919 139.77 155.872 196.076 132.492Z" fill="url(#paint6_radial_88_69)"/>
<path style="mix-blend-mode:screen" d="M168.961 115.073C173.601 104.764 167.265 91.8627 154.811 86.2575C142.356 80.6522 128.498 84.4656 123.858 94.7749C119.219 105.084 125.554 117.986 138.009 123.591C150.464 129.196 164.321 125.383 168.961 115.073Z" fill="url(#paint7_radial_88_69)"/>
<path style="mix-blend-mode:screen" d="M166.893 103.076C168.673 99.9147 163.633 93.7 155.636 89.1955C147.638 84.6909 139.711 83.6021 137.931 86.7636C136.15 89.9251 141.19 96.1397 149.187 100.644C157.185 105.149 165.112 106.238 166.893 103.076Z" fill="url(#paint8_radial_88_69)"/>
<path style="mix-blend-mode:screen" d="M170.417 120.504C175.057 110.194 168.721 97.293 156.267 91.6878C143.812 86.0825 129.954 89.8959 125.314 100.205C120.675 110.515 127.01 123.416 139.465 129.021C151.92 134.626 165.777 130.813 170.417 120.504Z" fill="url(#paint9_radial_88_69)"/>
<path style="mix-blend-mode:screen" d="M168.335 108.508C170.116 105.346 165.076 99.1314 157.079 94.6268C149.081 90.1223 141.154 89.0335 139.373 92.195C137.593 95.3565 142.633 101.571 150.63 106.076C158.628 110.58 166.555 111.669 168.335 108.508Z" fill="url(#paint10_radial_88_69)"/>
<path style="mix-blend-mode:screen" d="M162.444 120.869C167.084 110.56 160.749 97.6587 148.294 92.0534C135.839 86.4481 121.981 90.2616 117.342 100.571C112.702 110.88 119.037 123.782 131.492 129.387C143.947 134.992 157.805 131.179 162.444 120.869Z" fill="url(#paint11_radial_88_69)"/>
<path style="mix-blend-mode:screen" d="M160.368 108.868C162.148 105.707 157.109 99.4923 149.111 94.9878C141.113 90.4832 133.186 89.3944 131.406 92.5559C129.625 95.7174 134.665 101.932 142.663 106.437C150.66 110.941 158.587 112.03 160.368 108.868Z" fill="url(#paint12_radial_88_69)"/>
<path style="mix-blend-mode:screen" d="M175.998 102.114C178.976 95.4966 174.911 87.2159 166.919 83.6188C158.926 80.0217 150.032 82.4705 147.054 89.0882C144.076 95.7059 148.141 103.987 156.133 107.584C164.126 111.181 173.02 108.732 175.998 102.114Z" fill="url(#paint13_radial_88_69)"/>
<path style="mix-blend-mode:screen" d="M151.663 147.119C160.792 136.724 158.009 119.354 145.448 108.322C132.887 97.2909 115.303 96.7751 106.174 107.17C97.045 117.565 99.8274 134.935 112.389 145.967C124.95 156.998 142.534 157.514 151.663 147.119Z" fill="url(#paint14_radial_88_69)"/>
<path style="mix-blend-mode:screen" d="M148.413 143.053C157.543 132.657 154.76 115.288 142.199 104.256C129.638 93.2248 112.054 92.7089 102.925 103.104C93.7958 113.499 96.5781 130.869 109.139 141.9C121.701 152.932 139.284 153.448 148.413 143.053Z" fill="url(#paint15_radial_88_69)"/>
</g>
<defs>
<radialGradient id="paint0_radial_88_69" cx="0" cy="0" r="1" gradientUnits="userSpaceOnUse" gradientTransform="translate(206.479 127.987) rotate(-90) scale(18.5416 156.279)">
<stop stop-color="#FF73A4"/>
<stop offset="0.07" stop-color="#DF658F"/>
<stop offset="0.22" stop-color="#A54A6A"/>
<stop offset="0.36" stop-color="#72344A"/>
<stop offset="0.5" stop-color="#49212F"/>
<stop offset="0.64" stop-color="#29131B"/>
<stop offset="0.77" stop-color="#12080C"/>
<stop offset="0.89" stop-color="#050203"/>
<stop offset="1"/>
</radialGradient>
<radialGradient id="paint1_radial_88_69" cx="0" cy="0" r="1" gradientUnits="userSpaceOnUse" gradientTransform="translate(202.723 180.554) rotate(-90) scale(3.9732 199.984)">
<stop stop-color="#FF73A4"/>
<stop offset="0.01" stop-color="#FFCF70"/>
<stop offset="0.08" stop-color="#DFB562"/>
<stop offset="0.22" stop-color="#A58648"/>
<stop offset="0.37" stop-color="#725D32"/>
<stop offset="0.51" stop-color="#493B20"/>
<stop offset="0.64" stop-color="#292212"/>
<stop offset="0.77" stop-color="#120F08"/>
<stop offset="0.89" stop-color="#050402"/>
<stop offset="1"/>
</radialGradient>
<radialGradient id="paint2_radial_88_69" cx="0" cy="0" r="1" gradientUnits="userSpaceOnUse" gradientTransform="translate(224.207 123.896) rotate(-110.93) scale(11.4814 96.7718)">
<stop stop-color="#FF7373"/>
<stop offset="0.07" stop-color="#DF6565"/>
<stop offset="0.22" stop-color="#A54A4A"/>
<stop offset="0.36" stop-color="#723434"/>
<stop offset="0.5" stop-color="#492121"/>
<stop offset="0.64" stop-color="#291313"/>
<stop offset="0.77" stop-color="#120808"/>
<stop offset="0.89" stop-color="#050202"/>
<stop offset="1"/>
</radialGradient>
<radialGradient id="paint3_radial_88_69" cx="0" cy="0" r="1" gradientUnits="userSpaceOnUse" gradientTransform="translate(242.766 175.622) rotate(-110.93) scale(2.46031 123.835)">
<stop stop-color="#FF7373"/>
<stop offset="0.01" stop-color="#FFE570"/>
<stop offset="0.08" stop-color="#DFC862"/>
<stop offset="0.22" stop-color="#A59448"/>
<stop offset="0.37" stop-color="#726732"/>
<stop offset="0.51" stop-color="#494220"/>
<stop offset="0.64" stop-color="#292512"/>
<stop offset="0.77" stop-color="#121108"/>
<stop offset="0.89" stop-color="#050402"/>
<stop offset="1"/>
</radialGradient>
<radialGradient id="paint4_radial_88_69" cx="0" cy="0" r="1" gradientUnits="userSpaceOnUse" gradientTransform="translate(213.76 73.5104) scale(39.02 10.9256)">
<stop stop-color="white"/>
<stop offset="0.09" stop-color="#F5F5F5"/>
<stop offset="0.24" stop-color="#DCDCDC"/>
<stop offset="0.25" stop-color="#DBDBDB"/>
<stop offset="0.36" stop-color="#A5A5A5"/>
<stop offset="0.47" stop-color="#737373"/>
<stop offset="0.59" stop-color="#4A4A4A"/>
<stop offset="0.7" stop-color="#2A2A2A"/>
<stop offset="0.81" stop-color="#131313"/>
<stop offset="0.91" stop-color="#050505"/>
<stop offset="1"/>
</radialGradient>
<radialGradient id="paint5_radial_88_69" cx="0" cy="0" r="1" gradientUnits="userSpaceOnUse" gradientTransform="translate(205.692 71.4325) scale(100.63 72.57)">
<stop offset="0.11" stop-color="#FFBE8C"/>
<stop offset="0.14" stop-color="#E4AA7D"/>
<stop offset="0.2" stop-color="#B48663"/>
<stop offset="0.26" stop-color="#89664B"/>
<stop offset="0.33" stop-color="#644B37"/>
<stop offset="0.4" stop-color="#453326"/>
<stop offset="0.47" stop-color="#2C2118"/>
<stop offset="0.56" stop-color="#18120D"/>
<stop offset="0.66" stop-color="#0A0806"/>
<stop offset="0.78" stop-color="#020201"/>
<stop offset="1"/>
</radialGradient>
<radialGradient id="paint6_radial_88_69" cx="0" cy="0" r="1" gradientUnits="userSpaceOnUse" gradientTransform="translate(176.601 82.2033) rotate(-22.55) scale(110.818 52.7191)">
<stop stop-color="#FFBE8C"/>
<stop offset="0.07" stop-color="#D49E74"/>
<stop offset="0.16" stop-color="#A27959"/>
<stop offset="0.26" stop-color="#775941"/>
<stop offset="0.36" stop-color="#523D2D"/>
<stop offset="0.47" stop-color="#34271D"/>
<stop offset="0.58" stop-color="#1D1610"/>
<stop offset="0.7" stop-color="#0D0907"/>
<stop offset="0.83" stop-color="#030202"/>
<stop offset="1"/>
</radialGradient>
<radialGradient id="paint7_radial_88_69" cx="0" cy="0" r="1" gradientUnits="userSpaceOnUse" gradientTransform="translate(150.948 107.182) rotate(114.23) scale(20.474 24.71)">
<stop offset="0.74" stop-color="#1F0D14"/>
<stop offset="0.88" stop-color="#0B0507"/>
<stop offset="1"/>
</radialGradient>
<radialGradient id="paint8_radial_88_69" cx="0" cy="0" r="1" gradientUnits="userSpaceOnUse" gradientTransform="translate(153 93.5791) rotate(29.39) scale(16.6139 6.6133)">
<stop stop-color="#C25081"/>
<stop offset="0.19" stop-color="#702646"/>
<stop offset="0.29" stop-color="#5B1F39"/>
<stop offset="0.5" stop-color="#341220"/>
<stop offset="0.7" stop-color="#17080F"/>
<stop offset="0.87" stop-color="#060204"/>
<stop offset="1"/>
</radialGradient>
<radialGradient id="paint9_radial_88_69" cx="0" cy="0" r="1" gradientUnits="userSpaceOnUse" gradientTransform="translate(152.373 112.62) rotate(114.23) scale(20.474 24.71)">
<stop offset="0.74" stop-color="#1F0D14"/>
<stop offset="0.88" stop-color="#0B0507"/>
<stop offset="1"/>
</radialGradient>
<radialGradient id="paint10_radial_88_69" cx="0" cy="0" r="1" gradientUnits="userSpaceOnUse" gradientTransform="translate(154.422 99.0346) rotate(29.39) scale(16.6139 6.6133)">
<stop stop-color="#C25081"/>
<stop offset="0.19" stop-color="#702646"/>
<stop offset="0.29" stop-color="#5B1F39"/>
<stop offset="0.5" stop-color="#341220"/>
<stop offset="0.7" stop-color="#17080F"/>
<stop offset="0.87" stop-color="#060204"/>
<stop offset="1"/>
</radialGradient>
<radialGradient id="paint11_radial_88_69" cx="0" cy="0" r="1" gradientUnits="userSpaceOnUse" gradientTransform="translate(144.416 112.988) rotate(114.23) scale(20.474 24.71)">
<stop offset="0.74" stop-color="#1F0D14"/>
<stop offset="0.88" stop-color="#0B0507"/>
<stop offset="1"/>
</radialGradient>
<radialGradient id="paint12_radial_88_69" cx="0" cy="0" r="1" gradientUnits="userSpaceOnUse" gradientTransform="translate(146.445 99.4194) rotate(29.39) scale(16.6139 6.6133)">
<stop stop-color="#C25081"/>
<stop offset="0.19" stop-color="#702646"/>
<stop offset="0.29" stop-color="#5B1F39"/>
<stop offset="0.5" stop-color="#341220"/>
<stop offset="0.7" stop-color="#17080F"/>
<stop offset="0.87" stop-color="#060204"/>
<stop offset="1"/>
</radialGradient>
<radialGradient id="paint13_radial_88_69" cx="0" cy="0" r="1" gradientUnits="userSpaceOnUse" gradientTransform="translate(166.034 97.8536) rotate(114.23) scale(13.137 15.855)">
<stop offset="0.78" stop-color="#542336"/>
<stop offset="0.88" stop-color="#29111B"/>
<stop offset="0.96" stop-color="#0B0507"/>
<stop offset="1"/>
</radialGradient>
<radialGradient id="paint14_radial_88_69" cx="0" cy="0" r="1" gradientUnits="userSpaceOnUse" gradientTransform="translate(132.599 130.683) rotate(131.29) scale(25.056 30.24)">
<stop offset="0.78" stop-color="#240E17"/>
<stop offset="0.91" stop-color="#0B0407"/>
<stop offset="1"/>
</radialGradient>
<radialGradient id="paint15_radial_88_69" cx="0" cy="0" r="1" gradientUnits="userSpaceOnUse" gradientTransform="translate(129.358 126.6) rotate(131.29) scale(25.056 30.24)">
<stop offset="0.78" stop-color="#241B04"/>
<stop offset="0.91" stop-color="#0B0801"/>
<stop offset="1"/>
</radialGradient>
<clipPath id="clip0_88_69">
<rect width="399.26" height="154.58" fill="white"/>
</clipPath>
</defs>
</svg>
